<svg id="Layer_1" data-name="Layer 1" xmlns="http://www.w3.org/2000/svg" width="172" height="30" viewBox="0 0 172 30">
  <defs>
    <style>
      .cls-1 {
        fill: #dd2f38;
      }
    </style>
  </defs>
  <title>KamNevoj 1</title>
  <g>
    <g>
      <path class="cls-1" d="M56,3.05l-9.17,9.54,10,10.15v.2h-4L43.9,13.82v9.12H40.7v-20h3.2v8.64l8.15-8.64h4Z"/>
      <path class="cls-1" d="M68,8.85h2.85V22.94h-2.8l-.14-2.29a5.57,5.57,0,0,1-4.86,2.66c-4.11,0-7.23-2.63-7.23-7.43a6.91,6.91,0,0,1,7.29-7.34,5.43,5.43,0,0,1,4.8,2.54Zm-9.23,7a4.44,4.44,0,0,0,4.57,4.69c6.09,0,6.09-9.35,0-9.35A4.43,4.43,0,0,0,58.77,15.88Z"/>
      <path class="cls-1" d="M83.34,22.94V15.2c0-2.09-1.2-3.83-3.28-3.83s-3.4,1.74-3.4,3.83v7.74h-3V8.82h2.75l.2,1.89A4.26,4.26,0,0,1,80.6,8.59,4.44,4.44,0,0,1,85,11.42a5.15,5.15,0,0,1,4.83-2.8c3.89,0,6,2.46,6,6.52v7.8h-3v-7.8c0-2.09-1-3.75-3.11-3.75a3.52,3.52,0,0,0-3.43,3.81v7.74Z"/>
      <path d="M112.67,17.17V2.93h3.2v20h-2.43L102.09,8.82V22.94H98.86v-20h2.46Z"/>
      <path d="M121.1,17c.26,2.14,2,3.54,4.6,3.54A5.92,5.92,0,0,0,129.79,19l1.91,1.85a8.39,8.39,0,0,1-6.06,2.4c-4.63,0-7.6-2.94-7.6-7.46a7.05,7.05,0,0,1,7.4-7.34c4.55,0,7.64,2.77,7.09,8.52Zm8.6-2.49c-.17-2.23-1.8-3.4-4.17-3.4a4.18,4.18,0,0,0-4.37,3.4Z"/>
      <path d="M147.65,8.82l-6,14.18h-3.23l-6-14.18h3.25l1.89,4.55,2.49,6.54,2.23-6,2.11-5.12Z"/>
      <path d="M162.14,15.91a7.29,7.29,0,1,1-14.57,0,7.29,7.29,0,1,1,14.57,0Zm-11.63,0a4.34,4.34,0,1,0,8.66,0,4.42,4.42,0,0,0-4.34-4.63A4.33,4.33,0,0,0,150.51,15.91Z"/>
      <g>
        <path d="M167.06,8.79V24.6c0,3.54-1.29,5.4-4.46,5.4a5.34,5.34,0,0,1-3-.89l1.05-2.31a3.92,3.92,0,0,0,1.8.43c1.41,0,1.63-1,1.63-2.63V8.79Z"/>
        <path class="cls-1" d="M163.77,4.65a1.83,1.83,0,0,0,3.66,0A1.83,1.83,0,0,0,163.77,4.65Z"/>
      </g>
    </g>
    <path d="M27.94,6.76,19.83.86a4.49,4.49,0,0,0-5.29,0L6.43,6.76A4.48,4.48,0,0,0,4.57,10.4V21.75a4.51,4.51,0,0,0,4.5,4.5H25.3a4.5,4.5,0,0,0,4.49-4.5V10.4A4.5,4.5,0,0,0,27.94,6.76ZM14.66,23.89V17a1.42,1.42,0,0,1,1.42-1.42h2.21A1.43,1.43,0,0,1,19.71,17v6.85Zm12.78-2.14a2.14,2.14,0,0,1-2.14,2.14H22.06V17a3.77,3.77,0,0,0-3.77-3.77H16.08A3.78,3.78,0,0,0,12.3,17v6.85H9.07a2.14,2.14,0,0,1-2.14-2.14V10.4a2.16,2.16,0,0,1,.88-1.74l8.11-5.89a2.13,2.13,0,0,1,2.52,0l8.12,5.89a2.16,2.16,0,0,1,.88,1.74Z"/>
  </g>
</svg>
